<?xml version="1.0" standalone="no"?>
<!DOCTYPE svg PUBLIC "-//W3C//DTD SVG 20010904//EN"
 "http://www.w3.org/TR/2001/REC-SVG-20010904/DTD/svg10.dtd">
<svg version="1.0" xmlns="http://www.w3.org/2000/svg"
 width="702.000000pt" height="702.000000pt" viewBox="0 0 702.000000 702.000000"
 preserveAspectRatio="xMidYMid meet">
<metadata>
Created by potrace 1.14, written by Peter Selinger 2001-2017
</metadata>
<g transform="translate(0.000000,702.000000) scale(0.100000,-0.100000)"
fill="#000000" stroke="none">
<path d="M1835 6624 c-616 -95 -1135 -421 -1468 -924 -266 -401 -393 -949
-347 -1495 38 -443 157 -840 357 -1194 408 -723 1112 -1391 2216 -2104 270
-174 834 -510 881 -524 57 -17 91 -1 422 197 929 557 1504 981 2000 1475 265
264 427 459 613 740 249 375 382 710 456 1148 66 395 57 733 -30 1092 -128
530 -420 952 -864 1249 -241 161 -472 256 -793 323 -124 26 -149 28 -363 28
-176 0 -252 -5 -325 -18 -416 -77 -726 -219 -1017 -467 l-67 -57 -41 38 c-282
264 -690 444 -1135 499 -116 14 -386 11 -495 -6z m585 -554 c158 -13 269 -29
375 -52 50 -11 108 -24 130 -28 22 -4 54 -13 70 -19 96 -34 421 -104 463 -100
15 2 32 0 37 -3 14 -9 197 24 320 57 55 15 116 31 135 35 19 4 55 13 80 19
163 45 269 65 425 80 241 24 278 24 550 -4 92 -9 258 -46 297 -66 10 -5 25 -9
33 -9 9 0 35 -9 57 -20 23 -11 47 -20 52 -20 6 0 23 -6 38 -14 15 -8 40 -17
57 -21 17 -4 31 -10 31 -15 0 -5 21 -19 48 -32 26 -12 66 -35 88 -50 23 -15
43 -25 46 -23 2 2 25 -16 52 -41 27 -24 52 -44 57 -44 11 0 229 -219 229 -230
0 -6 4 -10 9 -10 5 0 12 -8 16 -19 3 -10 16 -30 28 -44 30 -33 45 -56 60 -89
6 -16 14 -28 18 -28 4 0 13 -15 20 -32 7 -18 25 -53 39 -78 15 -25 34 -65 43
-90 54 -153 66 -191 77 -245 7 -33 16 -69 21 -80 27 -65 38 -447 18 -630 -7
-60 -15 -112 -19 -115 -6 -6 -30 -117 -30 -142 0 -9 -5 -29 -11 -45 -7 -15
-12 -35 -13 -43 -2 -29 -68 -226 -92 -273 -13 -27 -24 -53 -24 -58 0 -4 -11
-33 -25 -64 -13 -30 -25 -59 -26 -63 -6 -19 -98 -192 -116 -218 -11 -16 -26
-44 -34 -61 -8 -18 -17 -33 -21 -33 -5 0 -8 -5 -8 -10 0 -11 -66 -116 -87
-138 -6 -6 -15 -21 -18 -32 -3 -11 -10 -20 -15 -20 -5 0 -19 -17 -31 -37 -13
-21 -36 -51 -51 -68 -15 -16 -28 -35 -28 -42 0 -6 -4 -13 -8 -15 -4 -1 -37
-40 -74 -84 -100 -124 -251 -281 -398 -414 -45 -41 -88 -80 -95 -87 -6 -6 -54
-44 -106 -83 -52 -40 -98 -78 -102 -86 -4 -8 -14 -14 -22 -14 -8 0 -22 -8 -32
-18 -56 -57 -289 -202 -514 -320 -56 -29 -108 -59 -116 -67 -8 -8 -21 -15 -30
-15 -8 0 -45 -13 -81 -29 -37 -16 -90 -37 -117 -46 -28 -9 -64 -23 -81 -30
-16 -8 -49 -17 -72 -21 -24 -4 -45 -11 -48 -15 -3 -5 -19 -9 -36 -9 -16 0 -58
-8 -92 -17 -50 -15 -100 -18 -276 -17 -200 0 -222 2 -325 27 -164 42 -270 76
-371 123 -28 13 -58 24 -67 24 -9 0 -19 4 -22 10 -3 5 -15 10 -26 10 -10 0
-19 4 -19 8 0 5 -33 23 -72 42 -40 18 -75 36 -78 39 -3 3 -21 14 -40 23 -88
43 -218 123 -232 143 -5 7 -8 7 -8 0 0 -7 -3 -7 -8 0 -4 6 -14 15 -23 20 -9 6
-51 35 -94 65 -43 30 -85 60 -93 65 -21 14 -59 44 -103 82 -20 18 -41 33 -47
33 -6 0 -12 3 -14 8 -1 4 -30 30 -63 57 -217 181 -484 466 -642 685 -34 47
-73 99 -87 116 -14 18 -26 36 -26 41 0 6 -9 18 -20 28 -11 10 -20 26 -20 37 0
10 -5 18 -11 18 -5 0 -17 15 -25 33 -8 17 -30 59 -49 92 -51 91 -165 322 -165
334 0 6 -12 35 -26 65 -14 30 -27 60 -28 68 -2 7 -9 27 -15 43 -46 109 -115
445 -131 630 -13 166 2 421 31 515 11 36 21 76 23 90 1 14 8 35 15 48 6 12 11
28 10 35 -1 6 3 25 9 40 7 16 12 34 12 42 0 8 5 17 10 20 6 3 10 15 10 26 0
18 84 188 99 199 3 3 17 28 30 55 14 28 30 55 35 61 27 29 46 55 46 63 0 5 7
11 15 15 8 3 15 10 15 15 0 5 27 37 60 72 33 34 60 66 60 71 0 5 5 6 10 3 6
-3 10 2 10 11 0 10 3 15 6 11 3 -3 22 10 42 29 20 19 39 34 43 34 3 0 22 13
40 30 19 16 40 30 47 30 6 0 12 6 12 13 0 12 16 21 120 73 30 15 67 36 82 46
16 11 32 17 37 13 6 -3 13 0 18 7 4 7 24 19 43 26 83 31 237 81 260 85 14 2
32 7 40 10 23 9 147 23 305 36 146 12 159 12 285 1z"/>
<path d="M3191 5009 c-157 -12 -423 -60 -445 -80 -6 -5 -21 -9 -35 -9 -29 -1
-123 -31 -143 -47 -7 -5 -33 -19 -58 -31 -25 -12 -54 -27 -65 -34 -40 -23 -50
-28 -75 -40 -14 -7 -31 -21 -38 -30 -7 -10 -20 -18 -28 -18 -8 0 -17 -7 -20
-15 -4 -8 -12 -15 -20 -15 -8 0 -13 -5 -11 -12 1 -6 -7 -16 -18 -22 -34 -18
-125 -118 -125 -137 0 -5 -12 -21 -26 -34 -14 -13 -23 -29 -19 -35 4 -6 0 -19
-8 -28 -16 -17 -17 -20 -17 -48 0 -8 -5 -12 -10 -9 -5 3 -10 -1 -10 -9 0 -9
-4 -16 -9 -16 -5 0 -12 -19 -16 -42 -4 -24 -10 -52 -12 -63 -3 -11 -6 -28 -6
-37 -1 -10 -4 -18 -8 -18 -4 0 -7 -22 -7 -50 -1 -27 -5 -57 -10 -67 -6 -10 -8
-49 -5 -88 3 -38 5 -82 5 -97 -1 -16 4 -28 9 -28 6 0 8 -8 5 -17 -7 -18 8 -92
33 -163 9 -25 16 -47 17 -50 0 -3 6 -18 12 -33 7 -16 12 -35 12 -43 0 -8 4
-14 10 -14 5 0 12 -16 16 -35 3 -19 10 -35 14 -35 5 0 14 -16 21 -35 7 -19 17
-35 21 -35 4 0 8 -8 8 -19 0 -10 7 -24 15 -31 8 -7 13 -16 10 -20 -2 -4 7 -17
20 -28 14 -12 25 -28 25 -35 0 -8 11 -24 25 -37 14 -13 25 -28 25 -34 0 -6 18
-27 40 -46 22 -19 40 -41 40 -47 0 -7 7 -13 15 -13 8 0 17 -11 21 -25 3 -14
13 -25 20 -25 8 0 17 -7 20 -15 3 -8 14 -17 25 -20 10 -4 19 -13 19 -21 0 -8
4 -14 10 -14 10 0 50 -33 112 -94 22 -21 42 -36 44 -33 3 3 14 -2 24 -11 30
-28 75 -57 83 -54 4 1 24 -8 45 -21 45 -28 128 -67 142 -67 6 0 25 -8 43 -17
18 -9 34 -18 37 -18 3 -1 17 -7 31 -13 15 -6 43 -14 63 -17 20 -4 39 -11 42
-16 3 -5 17 -9 32 -9 15 0 59 -7 97 -15 95 -20 376 -20 481 0 175 33 242 52
259 71 6 7 26 15 46 18 20 4 73 26 117 50 45 24 91 46 104 49 13 4 41 22 62
41 21 20 42 34 46 31 4 -3 15 6 24 20 9 14 21 25 27 25 5 0 22 13 37 28 15 16
35 32 45 35 9 4 17 13 17 22 0 8 6 15 14 15 15 0 76 56 76 69 0 9 38 41 50 41
6 0 10 5 10 11 0 6 15 25 33 41 17 17 33 35 33 39 1 5 2 16 3 24 0 8 8 15 16
15 8 0 15 5 15 11 0 5 4 8 9 5 5 -4 12 6 16 22 3 15 17 40 30 54 13 14 27 38
31 52 3 14 10 26 15 26 5 0 9 10 9 23 0 12 9 29 20 37 11 8 20 22 20 31 0 8
11 38 25 65 14 27 27 58 29 69 2 11 9 33 15 48 6 16 11 41 11 57 0 16 4 31 9
34 5 4 12 25 16 47 9 54 14 301 7 314 -3 5 -7 29 -9 53 -1 24 -7 50 -12 56 -6
7 -13 26 -15 42 -2 16 -8 40 -14 54 -5 14 -8 28 -5 33 2 4 0 7 -6 7 -10 0 -61
100 -61 119 0 5 -8 16 -18 23 -10 7 -25 28 -33 46 -7 17 -19 32 -25 32 -7 0
-15 7 -18 16 -3 8 -10 12 -16 9 -5 -3 -10 3 -10 13 0 19 -25 37 -44 33 -5 -1
-6 4 -3 12 5 14 -25 47 -44 47 -5 0 -20 10 -33 23 -30 29 -54 45 -88 58 -16 6
-28 15 -28 19 0 5 -10 12 -22 15 -44 13 -118 49 -118 57 0 4 -10 8 -23 8 -13
0 -27 4 -32 9 -13 11 -245 68 -333 81 -183 27 -235 31 -472 34 -140 2 -302 0
-359 -5z"/>
</g>
</svg>
