<?xml version="1.0" standalone="no"?>
<!DOCTYPE svg PUBLIC "-//W3C//DTD SVG 20010904//EN"
 "http://www.w3.org/TR/2001/REC-SVG-20010904/DTD/svg10.dtd">
<svg version="1.0" xmlns="http://www.w3.org/2000/svg"
 width="950.000000pt" height="950.000000pt" viewBox="0 0 950.000000 950.000000"
 preserveAspectRatio="xMidYMid meet">
<metadata>
Created by potrace 1.14, written by Peter Selinger 2001-2017
</metadata>
<g transform="translate(0.000000,950.000000) scale(0.100000,-0.100000)"
fill="#000000" stroke="none">
<path d="M2375 9234 c-235 -28 -499 -93 -695 -170 -309 -123 -565 -297 -821
-560 -243 -251 -406 -510 -544 -868 -152 -396 -202 -688 -199 -1181 3 -583 51
-869 243 -1445 163 -488 386 -941 699 -1414 467 -706 931 -1223 1572 -1746
324 -266 829 -635 1310 -959 157 -105 397 -277 535 -381 137 -104 254 -186
260 -182 5 3 143 105 305 227 162 122 391 285 507 363 430 287 953 670 1273
932 637 520 1099 1033 1565 1735 254 383 484 828 637 1230 117 308 233 724
267 961 41 278 52 884 20 1172 -40 370 -184 787 -393 1140 -163 274 -442 565
-722 753 -259 173 -515 277 -862 349 -376 79 -616 78 -1019 -1 -297 -58 -538
-137 -768 -251 -236 -118 -328 -182 -637 -440 l-178 -149 -225 183 c-268 218
-381 294 -575 392 -182 92 -295 137 -485 191 -400 115 -769 156 -1070 119z
m1175 -924 c52 -5 133 -16 180 -25 47 -9 114 -20 150 -26 36 -6 73 -15 83 -20
9 -5 63 -18 120 -29 56 -12 116 -25 132 -30 149 -48 373 -85 510 -85 137 0
356 37 510 85 17 5 77 19 134 30 57 12 111 26 120 30 9 4 45 13 81 19 36 6
103 17 150 26 147 27 268 36 490 37 205 1 420 -13 485 -32 17 -4 70 -16 119
-25 48 -9 95 -23 104 -31 12 -13 16 -13 23 -2 5 7 9 8 9 3 0 -12 33 -25 133
-50 37 -10 67 -22 67 -27 0 -5 5 -6 10 -3 6 3 10 2 10 -3 0 -5 29 -21 65 -37
36 -15 65 -32 65 -37 0 -6 7 -8 15 -4 8 3 15 1 15 -5 0 -6 4 -7 10 -4 6 3 10
2 10 -4 0 -5 16 -15 35 -21 19 -6 43 -22 52 -34 19 -23 50 -43 113 -71 20 -9
40 -26 45 -38 6 -12 27 -30 48 -40 20 -10 37 -25 37 -33 0 -9 4 -12 10 -9 13
8 214 -191 205 -205 -3 -5 0 -10 8 -10 9 0 27 -20 41 -45 15 -25 33 -45 40
-45 8 0 19 -14 25 -32 6 -18 21 -43 33 -55 12 -13 23 -31 24 -39 1 -9 11 -22
22 -30 10 -7 27 -33 36 -58 10 -26 22 -46 27 -46 4 0 6 -8 2 -17 -3 -10 -2
-15 2 -10 9 8 47 -42 40 -54 -3 -4 2 -12 10 -19 8 -7 15 -23 15 -36 0 -13 5
-24 11 -24 5 0 8 -4 5 -9 -4 -5 -3 -11 1 -13 13 -5 53 -97 53 -122 0 -13 9
-35 21 -50 12 -15 28 -63 38 -113 20 -94 29 -123 40 -123 4 0 5 -18 3 -40 -2
-23 0 -40 6 -40 6 0 8 -9 5 -20 -3 -11 0 -26 6 -34 7 -8 9 -25 5 -40 -4 -18
-1 -33 9 -44 8 -9 15 -28 16 -42 0 -14 5 -70 10 -125 17 -169 10 -572 -12
-715 -3 -14 -8 -52 -12 -85 -4 -33 -12 -66 -17 -72 -6 -7 -8 -22 -5 -34 3 -12
2 -29 -2 -38 -17 -33 -30 -84 -25 -93 3 -5 1 -14 -4 -21 -5 -7 -15 -47 -23
-89 -7 -43 -17 -78 -22 -78 -4 0 -5 -4 -2 -10 3 -5 1 -10 -5 -10 -8 0 -10 -9
-6 -25 4 -14 2 -25 -3 -25 -9 0 -27 -61 -38 -128 -3 -19 -12 -36 -19 -39 -8
-3 -11 -10 -8 -15 4 -6 1 -13 -5 -17 -6 -4 -13 -22 -14 -39 -1 -18 -5 -32 -9
-32 -3 0 -11 -23 -18 -51 -7 -28 -18 -53 -25 -55 -6 -3 -12 -10 -13 -17 -1
-12 -9 -48 -12 -57 -1 -3 -2 -8 -1 -12 0 -5 -4 -8 -9 -8 -6 0 -10 -6 -10 -13
0 -8 -6 -27 -14 -43 -7 -16 -20 -44 -27 -61 -8 -18 -18 -33 -22 -33 -5 0 -5
-4 -2 -10 3 -6 3 -10 -2 -10 -4 0 -21 -32 -37 -70 -17 -39 -34 -70 -39 -70 -4
0 -5 -4 -2 -10 3 -5 2 -10 -2 -10 -5 0 -24 -34 -43 -75 -19 -41 -37 -75 -40
-75 -4 0 -22 -30 -41 -67 -19 -37 -42 -77 -53 -88 -10 -11 -24 -33 -32 -50 -7
-16 -24 -43 -38 -59 -15 -16 -26 -33 -26 -38 0 -5 -11 -24 -25 -42 -14 -18
-25 -35 -25 -38 0 -2 -18 -24 -40 -48 -22 -24 -40 -49 -40 -57 0 -7 -11 -23
-25 -35 -14 -12 -25 -27 -25 -33 0 -6 -18 -29 -40 -51 -22 -21 -44 -51 -50
-65 -6 -14 -24 -33 -40 -43 -17 -9 -30 -25 -30 -34 0 -28 -183 -223 -501 -534
-43 -43 -83 -78 -89 -78 -5 0 -19 -13 -31 -29 -11 -16 -33 -35 -48 -42 -45
-23 -68 -44 -63 -58 3 -10 0 -12 -12 -8 -9 4 -16 1 -16 -5 0 -6 -2 -9 -5 -6
-6 5 -18 -5 -101 -83 -16 -16 -35 -29 -41 -29 -6 0 -25 -14 -42 -31 -17 -17
-36 -29 -42 -27 -7 2 -23 -8 -38 -22 -14 -14 -39 -34 -55 -45 -16 -11 -41 -30
-56 -42 -15 -13 -33 -23 -39 -23 -6 0 -11 -5 -11 -11 0 -5 -4 -7 -10 -4 -5 3
-10 1 -10 -5 0 -6 -4 -8 -10 -5 -5 3 -10 2 -10 -2 0 -9 -13 -17 -85 -52 -28
-13 -53 -29 -57 -35 -4 -6 -8 -7 -8 -1 0 5 -7 -1 -16 -13 -8 -12 -21 -22 -28
-22 -7 0 -21 -8 -32 -18 -10 -9 -29 -18 -42 -20 -13 -2 -32 -12 -42 -22 -10
-10 -38 -24 -60 -31 -23 -7 -44 -19 -47 -26 -3 -7 -9 -10 -14 -7 -5 3 -21 -4
-35 -15 -15 -12 -37 -21 -49 -21 -12 0 -48 -11 -79 -25 -31 -14 -63 -25 -71
-25 -8 0 -15 -4 -15 -8 0 -14 -183 -72 -231 -72 -9 0 -19 -7 -23 -15 -7 -18
-36 -20 -36 -2 0 8 -3 8 -9 -2 -9 -15 -165 -40 -249 -41 -28 0 -45 -5 -48 -15
-9 -22 -269 -22 -278 0 -3 10 -20 15 -48 15 -84 1 -240 26 -249 41 -6 10 -9
10 -9 2 0 -18 -29 -16 -36 2 -4 8 -14 15 -23 15 -48 0 -231 58 -231 72 0 4 -7
8 -15 8 -8 0 -40 11 -71 25 -31 14 -67 25 -79 25 -12 0 -34 9 -49 21 -14 11
-30 18 -35 15 -5 -3 -11 0 -14 7 -3 7 -24 19 -47 26 -22 7 -50 21 -60 31 -10
10 -29 20 -42 22 -13 2 -32 11 -42 20 -11 10 -25 18 -32 18 -7 0 -20 10 -28
22 -9 12 -16 18 -16 13 0 -6 -4 -5 -8 1 -4 6 -29 22 -57 35 -72 35 -85 43 -85
52 0 4 -5 5 -10 2 -6 -3 -10 -1 -10 5 0 6 -5 8 -10 5 -6 -3 -10 -1 -10 4 0 6
-6 11 -13 11 -8 0 -22 9 -32 20 -10 11 -26 22 -37 26 -10 3 -38 25 -62 48 -24
23 -49 40 -55 38 -6 -2 -25 10 -42 27 -17 17 -36 31 -42 31 -7 0 -23 11 -37
24 -77 74 -100 93 -105 88 -3 -3 -5 0 -5 6 0 6 -7 9 -16 5 -12 -4 -15 -2 -12
8 5 15 -25 42 -59 53 -11 4 -33 22 -48 41 -14 19 -30 35 -36 35 -18 0 -360
342 -544 545 -25 27 -45 58 -45 67 0 9 -13 25 -30 34 -16 10 -34 29 -40 43 -6
14 -28 44 -50 65 -22 22 -40 45 -40 51 0 6 -11 21 -25 33 -14 12 -25 28 -25
35 0 8 -18 33 -40 57 -22 24 -40 46 -40 48 0 3 -11 20 -25 38 -14 18 -25 37
-25 43 0 6 -5 11 -12 11 -6 0 -9 3 -5 6 3 3 -3 16 -14 28 -11 11 -27 36 -34
54 -8 17 -19 32 -24 32 -6 0 -11 7 -11 15 0 8 -3 15 -7 15 -5 0 -19 25 -33 55
-14 30 -28 55 -32 55 -5 0 -8 7 -8 15 0 8 -4 15 -8 15 -4 0 -23 34 -42 75 -19
41 -38 75 -43 75 -4 0 -5 5 -2 10 3 6 2 10 -2 10 -5 0 -22 31 -39 70 -16 38
-33 70 -37 70 -5 0 -5 5 -2 10 3 6 3 10 -2 10 -4 0 -14 15 -22 33 -7 17 -20
45 -27 61 -8 16 -14 35 -14 43 0 7 -4 13 -10 13 -5 0 -9 3 -8 8 1 9 -7 33 -32
87 -10 22 -21 55 -25 73 -4 17 -10 32 -13 32 -4 0 -8 14 -9 32 -1 17 -8 35
-14 39 -6 4 -9 11 -5 17 3 5 0 12 -8 15 -7 3 -16 20 -19 39 -11 68 -29 128
-38 128 -6 0 -7 9 -4 20 4 11 1 26 -7 33 -7 8 -20 49 -27 93 -8 43 -18 84 -23
91 -5 7 -7 16 -4 21 5 9 -8 60 -25 93 -4 9 -5 26 -2 38 3 12 1 27 -5 34 -8 10
-16 54 -28 162 -24 212 -30 540 -13 710 5 55 10 111 10 125 1 14 8 33 16 42
10 11 13 26 9 44 -4 15 -2 32 5 40 6 8 9 23 6 34 -3 11 -1 20 5 20 6 0 8 17 6
40 -2 22 -1 40 3 40 11 0 27 50 44 138 10 52 23 90 35 102 11 11 20 31 20 45
0 25 39 117 53 123 4 2 5 8 1 13 -3 5 0 9 5 9 6 0 11 11 11 24 0 13 7 29 15
36 8 7 13 15 10 19 -7 12 31 62 40 54 4 -5 5 0 2 10 -4 9 -2 17 2 17 5 0 17
20 27 46 9 25 26 51 36 58 11 8 21 21 22 30 1 8 12 26 24 39 12 12 27 37 33
55 6 18 17 32 25 32 7 0 25 20 40 45 14 25 32 45 41 45 8 0 11 5 8 10 -9 14
191 214 205 205 5 -3 10 0 10 9 0 8 17 23 38 33 20 10 41 28 47 40 5 12 25 29
45 38 63 28 94 48 113 71 9 12 33 28 52 34 19 6 35 16 35 21 0 6 5 7 10 4 6
-3 10 -2 10 4 0 6 7 8 15 5 8 -4 15 -2 15 4 0 5 29 22 65 37 36 16 65 32 65
37 0 5 5 6 10 3 6 -3 10 -2 10 3 0 4 28 16 63 26 122 34 137 39 137 50 0 6 4
5 9 -2 7 -11 11 -11 23 2 9 8 56 22 104 31 49 9 103 21 119 25 28 8 206 26
335 34 83 5 353 -3 460 -14z"/>
<path d="M4443 7073 c-4 -1 -85 -7 -179 -13 -172 -11 -200 -14 -264 -29 -19
-5 -42 -9 -50 -9 -28 -1 -152 -22 -162 -28 -18 -11 -163 -42 -172 -37 -5 3
-14 -1 -20 -9 -10 -13 -92 -41 -122 -41 -8 0 -14 -4 -14 -8 0 -4 -10 -11 -22
-15 -13 -4 -25 -10 -28 -13 -3 -4 -35 -20 -72 -36 -38 -15 -68 -32 -68 -38 0
-5 -7 -4 -15 3 -13 11 -14 10 -8 -5 5 -14 3 -17 -9 -12 -10 3 -19 0 -22 -9 -3
-9 -10 -12 -16 -9 -5 3 -10 1 -10 -5 0 -6 -11 -15 -25 -20 -14 -5 -25 -14 -25
-20 0 -6 -4 -9 -9 -6 -5 3 -12 -1 -15 -10 -4 -9 -9 -15 -12 -12 -5 6 -51 -30
-92 -72 -13 -14 -30 -25 -37 -25 -18 0 -97 -74 -90 -84 2 -5 -4 -16 -15 -26
-11 -10 -20 -22 -20 -28 0 -5 -18 -27 -40 -49 -22 -22 -40 -46 -40 -54 0 -7
-9 -18 -21 -24 -13 -7 -18 -17 -15 -27 4 -10 2 -13 -8 -10 -9 4 -13 1 -10 -7
6 -15 -34 -106 -46 -106 -5 0 -7 -7 -4 -15 4 -8 1 -15 -5 -15 -6 0 -11 -9 -11
-20 0 -11 -6 -20 -12 -20 -8 0 -13 -14 -14 -31 -1 -17 -7 -35 -14 -39 -7 -4
-10 -12 -6 -18 7 -12 -13 -74 -23 -68 -3 3 -7 -12 -8 -32 -1 -20 -4 -48 -7
-62 -3 -13 -8 -42 -12 -65 -3 -22 -10 -62 -15 -89 -12 -66 -11 -341 1 -407 6
-30 13 -74 15 -99 2 -25 11 -72 20 -105 9 -33 28 -106 42 -162 16 -62 30 -100
36 -96 6 4 8 0 4 -9 -3 -9 0 -24 7 -34 16 -25 42 -106 38 -121 -2 -7 5 -13 14
-13 10 0 14 -3 11 -6 -6 -6 20 -62 34 -74 3 -3 19 -38 36 -78 16 -39 33 -69
37 -65 4 4 4 0 0 -10 -4 -12 -1 -17 11 -17 9 0 15 -5 13 -12 -3 -7 6 -22 19
-34 13 -12 23 -25 23 -29 0 -5 11 -23 26 -42 14 -18 23 -37 19 -42 -3 -5 0
-13 6 -17 8 -5 9 -3 4 6 -6 9 -4 11 4 6 7 -5 10 -14 7 -21 -3 -8 3 -16 12 -19
9 -3 26 -19 37 -36 11 -16 23 -30 28 -30 4 0 7 -7 7 -15 0 -8 9 -19 20 -25 11
-6 20 -16 20 -23 0 -8 13 -26 30 -42 16 -15 28 -33 27 -39 -1 -6 3 -10 10 -9
8 2 10 -4 6 -14 -4 -10 -2 -14 4 -10 6 4 28 -12 49 -35 20 -24 33 -37 29 -29
-6 10 -4 12 4 7 7 -5 10 -15 7 -23 -3 -8 -2 -12 3 -8 5 3 25 -14 45 -37 20
-23 38 -39 41 -36 3 3 22 -10 43 -29 20 -19 46 -44 57 -54 12 -10 25 -19 29
-19 5 0 19 -11 32 -25 13 -14 28 -25 34 -25 5 0 10 -4 10 -10 0 -5 6 -10 14
-10 8 0 18 -5 22 -12 5 -7 3 -8 -6 -3 -9 5 -11 4 -6 -4 4 -6 11 -9 17 -6 10 7
129 -74 129 -88 0 -4 4 -5 10 -2 11 7 70 -21 70 -33 0 -4 10 -8 23 -9 12 -1
29 -11 38 -22 9 -11 20 -17 24 -13 3 4 13 -1 20 -12 8 -10 18 -15 23 -12 6 3
12 1 14 -6 4 -11 29 -20 61 -19 9 0 17 -5 17 -10 0 -6 4 -8 9 -4 5 3 12 1 16
-5 3 -5 15 -10 25 -10 10 0 25 -6 32 -12 7 -7 29 -15 48 -16 19 -2 44 -9 55
-15 11 -6 26 -10 33 -9 6 2 12 -2 12 -9 0 -6 9 -9 20 -6 11 3 26 -1 34 -8 7
-8 16 -12 18 -9 3 2 43 -3 89 -12 46 -8 105 -15 132 -14 26 0 47 -3 47 -7 0
-5 61 -8 135 -8 74 0 135 3 135 8 0 4 21 7 48 7 26 -1 85 6 131 14 46 9 86 14
89 12 2 -3 11 1 18 9 8 7 23 11 34 8 11 -3 20 0 20 6 0 7 6 11 13 9 6 -1 21 3
32 9 11 6 36 13 55 15 19 1 41 9 48 16 7 6 22 12 32 12 10 0 22 5 25 10 4 6
11 8 16 5 5 -4 9 -2 9 2 0 5 8 9 18 10 35 3 56 10 60 21 2 7 8 9 14 6 5 -3 15
2 23 12 7 11 17 16 20 12 4 -4 15 2 24 13 9 11 26 21 39 22 12 1 22 5 22 9 0
12 59 40 70 33 6 -3 10 -2 10 3 0 10 146 112 160 112 6 0 10 5 10 10 0 6 5 10
10 10 6 0 21 11 34 25 13 14 27 25 32 25 4 0 17 9 29 19 11 10 37 35 57 54 21
19 39 32 42 30 2 -3 42 34 87 81 45 47 87 82 93 79 5 -4 7 1 3 10 -4 10 -2 16
6 14 7 -1 11 3 10 9 -1 6 9 22 22 34 14 13 25 29 25 37 0 7 11 20 25 29 14 9
25 21 25 27 0 6 14 23 32 39 17 15 28 28 24 28 -4 0 6 12 21 26 15 15 27 31
25 36 -1 6 9 25 23 43 14 19 25 37 25 41 0 4 10 16 23 28 13 12 22 27 19 34
-2 7 4 12 13 12 11 0 15 5 11 16 -3 8 -2 12 4 9 6 -3 10 -1 10 5 0 20 62 145
76 153 7 4 11 14 8 21 -3 8 3 23 14 34 11 11 19 22 16 24 -4 5 30 105 39 115
4 3 7 16 7 29 0 12 4 24 10 26 8 2 45 129 65 218 1 8 9 35 16 60 7 25 12 48
11 52 -1 3 5 46 13 95 16 99 20 364 6 439 -16 82 -24 138 -23 156 0 10 -3 20
-8 23 -5 3 -7 12 -4 20 3 8 -4 34 -15 58 -12 25 -19 52 -15 61 3 9 1 16 -5 16
-6 0 -11 6 -11 13 0 8 -11 35 -25 62 -13 27 -22 52 -19 57 3 4 1 8 -5 8 -14 0
-53 91 -46 108 3 10 0 12 -10 8 -8 -3 -15 -1 -15 4 0 21 -2 25 -16 33 -8 4
-14 14 -14 21 0 8 -18 32 -40 54 -22 22 -40 44 -40 49 0 6 -9 18 -20 28 -11
10 -20 24 -20 32 0 16 -67 78 -85 78 -7 0 -24 11 -37 25 -41 42 -87 78 -92 72
-3 -3 -8 3 -12 12 -3 9 -10 13 -15 10 -5 -3 -9 -1 -9 5 0 6 -16 18 -36 27 -20
9 -38 23 -41 30 -2 7 -12 10 -21 7 -12 -5 -14 -2 -9 11 4 9 3 15 -2 12 -12 -8
-121 41 -121 54 0 5 -3 9 -7 8 -16 -4 -83 24 -83 34 0 6 -3 9 -6 5 -8 -7 -96
19 -103 32 -4 5 -24 12 -46 15 -22 2 -69 12 -105 21 -81 21 -192 43 -249 50
-24 2 -49 9 -55 14 -6 5 -27 9 -46 9 -19 0 -102 6 -185 12 -124 10 -724 21
-752 13z m-1503 -523 c-17 -22 -36 -40 -41 -40 -5 0 8 18 28 40 48 51 53 51
13 0z m3580 0 c17 -22 29 -40 27 -40 -3 0 -20 18 -37 40 -17 22 -29 40 -27 40
3 0 20 -18 37 -40z"/>
</g>
</svg>
