<?xml version="1.0" standalone="no"?>
<!DOCTYPE svg PUBLIC "-//W3C//DTD SVG 20010904//EN"
 "http://www.w3.org/TR/2001/REC-SVG-20010904/DTD/svg10.dtd">
<svg version="1.0" xmlns="http://www.w3.org/2000/svg"
 width="950.000000pt" height="950.000000pt" viewBox="0 0 950.000000 950.000000"
 preserveAspectRatio="xMidYMid meet">
<metadata>
Created by potrace 1.14, written by Peter Selinger 2001-2017
</metadata>
<g transform="translate(0.000000,950.000000) scale(0.100000,-0.100000)"
fill="#000000" stroke="none">
<path d="M4499 9476 c-2 -2 -51 -7 -109 -10 -58 -4 -116 -8 -130 -10 -14 -3
-50 -7 -80 -10 -30 -3 -66 -7 -80 -10 -25 -4 -88 -14 -145 -22 -16 -3 -50 -9
-75 -14 -25 -5 -60 -12 -79 -15 -19 -3 -37 -7 -40 -9 -3 -2 -22 -7 -41 -10
-85 -13 -302 -74 -495 -138 -238 -79 -558 -221 -767 -339 -51 -29 -102 -57
-113 -63 -11 -6 -31 -18 -45 -27 -14 -9 -56 -35 -95 -60 -38 -24 -72 -46 -75
-50 -3 -3 -16 -12 -29 -19 -14 -7 -30 -17 -35 -21 -6 -5 -58 -44 -116 -86
-118 -86 -259 -198 -278 -221 -6 -9 -12 -13 -12 -11 0 10 -120 -102 -254 -237
-164 -164 -241 -249 -356 -394 -28 -36 -56 -72 -63 -80 -7 -8 -28 -37 -47 -65
-19 -27 -38 -52 -41 -55 -6 -5 -173 -259 -198 -301 -47 -79 -81 -142 -81 -150
0 -5 -4 -9 -8 -9 -4 0 -20 -26 -35 -57 -16 -32 -41 -83 -58 -113 -16 -30 -29
-56 -29 -57 0 -2 -14 -33 -31 -70 -49 -106 -90 -200 -95 -218 -1 -5 -16 -44
-33 -87 -69 -175 -152 -443 -181 -583 -4 -22 -17 -81 -28 -131 -11 -50 -24
-111 -27 -135 -4 -24 -8 -46 -10 -49 -2 -3 -7 -33 -10 -65 -4 -33 -9 -68 -11
-79 -3 -17 -6 -44 -19 -161 -32 -278 -27 -772 9 -1050 3 -22 8 -60 11 -85 8
-66 35 -220 51 -300 3 -14 6 -27 6 -30 1 -3 5 -21 10 -40 5 -19 11 -44 13 -55
3 -11 12 -49 21 -85 9 -36 17 -69 18 -75 15 -71 144 -453 176 -520 10 -21 32
-76 35 -85 0 -3 13 -33 29 -67 16 -34 27 -65 26 -69 -1 -4 2 -10 7 -13 4 -3
28 -49 53 -101 25 -52 47 -97 50 -100 3 -3 12 -18 20 -35 21 -42 102 -182 133
-232 15 -24 27 -47 27 -53 0 -5 5 -10 10 -10 6 0 14 -10 19 -23 20 -51 252
-369 364 -498 21 -24 62 -71 90 -104 100 -114 353 -361 467 -454 14 -11 32
-27 40 -34 21 -20 127 -103 207 -162 37 -27 71 -54 75 -60 4 -5 8 -6 8 -2 0 5
7 2 15 -6 8 -8 31 -25 52 -38 21 -13 40 -26 43 -29 9 -12 288 -180 298 -180 6
0 17 -6 24 -13 24 -23 251 -137 411 -205 23 -10 62 -27 87 -38 24 -10 47 -19
50 -20 3 0 19 -6 35 -13 49 -21 276 -100 330 -116 171 -48 202 -57 225 -61 14
-3 50 -11 80 -19 53 -13 171 -38 235 -50 17 -2 39 -7 50 -9 11 -2 45 -7 75
-11 30 -5 62 -9 70 -11 8 -1 40 -5 70 -9 30 -3 70 -8 89 -11 139 -19 650 -26
836 -11 183 15 307 30 400 47 28 5 67 12 87 14 21 3 57 10 80 15 24 6 55 12
71 15 15 2 35 7 45 10 9 3 29 7 44 10 24 4 306 81 336 91 7 2 13 5 15 5 1 0
58 20 127 44 188 66 277 103 430 174 30 14 57 26 60 27 3 0 34 16 70 34 142
73 236 124 251 137 8 8 18 14 22 14 8 0 189 113 265 166 35 24 65 44 67 44 3
0 13 6 22 14 10 8 65 51 123 95 97 74 121 93 190 151 160 135 400 374 540 539
25 29 50 58 56 65 11 11 179 235 242 321 17 24 32 49 32 55 0 5 5 10 10 10 6
0 10 5 10 10 0 6 15 32 33 58 18 26 53 81 77 122 25 41 52 89 62 105 52 88
224 449 271 570 82 207 177 503 193 595 3 14 7 31 10 39 8 24 42 183 49 231 4
24 8 47 10 50 2 3 6 26 10 50 6 45 10 68 19 125 3 17 8 55 11 85 3 30 8 69 10
85 26 219 26 847 0 986 -4 21 -14 103 -19 154 -2 22 -7 51 -10 65 -3 14 -8 41
-10 60 -8 52 -43 226 -61 300 -9 36 -18 74 -20 85 -5 26 -37 140 -65 230 -12
39 -24 79 -27 90 -2 11 -9 29 -13 40 -5 11 -20 52 -33 90 -29 81 -80 210 -109
275 -11 25 -29 65 -39 90 -11 25 -24 52 -29 60 -10 16 -33 61 -34 70 -1 3 -25
49 -54 103 -28 54 -52 102 -52 107 0 6 -4 10 -9 10 -5 0 -11 8 -15 18 -3 9
-17 35 -31 57 -14 22 -28 47 -32 55 -8 18 -233 353 -242 360 -3 3 -28 34 -55
70 -56 73 -171 212 -231 280 -60 67 -326 330 -380 375 -26 22 -60 51 -75 65
-45 40 -92 78 -197 156 -54 41 -103 78 -109 83 -12 9 -243 161 -316 208 -21
12 -42 23 -47 23 -5 0 -11 3 -13 8 -4 8 -71 46 -178 100 -41 20 -76 40 -78 45
-2 4 -12 7 -23 7 -10 0 -19 5 -19 10 0 6 -4 10 -10 10 -5 0 -33 11 -62 24
-163 74 -209 95 -216 97 -12 3 -56 19 -77 29 -44 20 -362 128 -400 136 -5 1
-44 11 -85 22 -69 20 -232 58 -290 68 -14 3 -56 11 -95 19 -38 7 -92 16 -120
20 -52 6 -92 12 -135 20 -14 2 -61 7 -105 11 -44 4 -93 9 -110 11 -38 5 -611
13 -616 9z"/>
</g>
</svg>
